<?xml version="1.0" standalone="no"?>
<!DOCTYPE svg PUBLIC "-//W3C//DTD SVG 20010904//EN"
 "http://www.w3.org/TR/2001/REC-SVG-20010904/DTD/svg10.dtd">
<svg version="1.0" xmlns="http://www.w3.org/2000/svg"
 width="611.000000pt" height="408.000000pt" viewBox="0 0 611.000000 408.000000"
 preserveAspectRatio="xMidYMid meet">

<g transform="translate(0.000000,408.000000) scale(0.100000,-0.100000)"
fill="#000000" stroke="none">
<path d="M2780 2931 c-117 -8 -158 -22 -209 -72 -65 -65 -74 -101 -79 -317 -2
-106 -1 -240 3 -298 7 -99 8 -104 24 -90 10 9 21 13 24 9 4 -3 7 1 7 11 0 13
4 15 18 8 9 -5 23 -7 31 -4 7 2 17 -2 22 -9 5 -8 9 54 9 151 1 293 23 372 123
434 42 26 59 30 181 39 90 7 180 7 275 0 129 -9 145 -13 188 -39 28 -18 59
-49 77 -77 37 -61 50 -179 43 -403 -5 -138 -9 -170 -28 -213 -26 -61 -81 -112
-141 -131 -24 -8 -44 -15 -46 -16 -2 -1 8 -14 22 -29 15 -16 26 -34 26 -41 0
-8 5 -14 10 -14 6 0 16 -12 22 -26 11 -24 16 -26 60 -22 99 10 188 95 208 199
6 28 10 200 10 382 0 366 -6 413 -61 480 -16 20 -55 48 -87 64 l-57 28 -285 1
c-157 1 -332 -2 -390 -5z"/>
<path d="M2857 2701 c-47 -10 -86 -38 -111 -80 -14 -24 -20 -59 -24 -140 -6
-133 6 -317 19 -283 5 13 13 20 19 17 5 -3 10 -2 10 2 0 16 78 1 99 -18 27
-25 27 -8 0 48 -17 35 -20 58 -17 117 4 86 33 139 100 183 37 25 51 28 123 28
74 0 86 -3 125 -30 66 -46 94 -95 98 -174 7 -133 -61 -218 -198 -247 l-55 -11
47 -8 c40 -6 89 -37 80 -51 -1 -2 3 -13 10 -24 25 -39 154 -21 200 27 39 41
47 96 48 303 0 196 -8 250 -43 288 -48 52 -68 56 -287 59 -113 1 -222 -2 -243
-6z m491 -73 c17 -17 15 -64 -4 -82 -49 -50 -124 24 -77 76 18 20 63 24 81 6z"/>
<path d="M3034 2489 c-64 -18 -100 -81 -94 -159 7 -99 155 -147 230 -75 61 59
59 148 -5 204 -20 17 -41 31 -48 31 -7 0 -21 2 -32 4 -11 3 -34 0 -51 -5z"/>
<path d="M1670 1713 c-65 -45 -101 -105 -106 -182 -5 -60 7 -85 54 -110 25
-13 27 -6 7 29 -8 14 -14 42 -15 62 0 78 78 221 96 175 8 -21 -2 -513 -11
-552 l-7 -30 36 36 c32 30 38 44 45 100 13 98 13 460 0 476 -16 18 -70 16 -99
-4z"/>
<path d="M2517 1723 c-4 -3 -7 -28 -7 -55 l0 -48 -45 0 c-38 0 -45 -3 -45 -19
0 -16 8 -20 43 -23 l42 -3 3 -100 c2 -90 0 -106 -21 -145 -28 -53 -57 -66 -57
-25 0 27 -45 81 -98 117 l-24 16 23 39 c39 68 1 98 -60 47 -33 -27 -38 -48
-20 -87 10 -21 6 -34 -29 -93 -44 -76 -75 -109 -91 -99 -7 4 -11 55 -11 135 0
122 -1 130 -22 144 -52 37 -87 12 -140 -99 l-33 -70 -3 85 c-3 85 -9 100 -44
100 -16 0 -18 -15 -18 -170 l0 -170 27 -11 c30 -11 43 0 43 39 0 38 50 174 78
216 48 70 52 62 52 -92 0 -124 2 -141 19 -156 18 -16 22 -16 50 -2 33 17 59
50 111 139 19 31 39 57 45 57 6 0 28 -17 48 -38 55 -57 49 -122 -12 -122 -13
0 -32 7 -41 15 -15 14 -19 13 -34 -4 -10 -11 -15 -24 -12 -30 12 -18 83 -34
121 -27 40 8 112 66 126 103 13 34 22 28 39 -24 9 -28 26 -55 43 -67 26 -19
30 -19 55 -5 15 8 36 29 47 46 25 40 30 40 45 3 28 -68 107 -77 163 -17 22 24
31 28 35 18 9 -26 51 -61 73 -61 11 0 33 13 48 29 l27 29 32 -29 c45 -41 84
-37 140 14 l22 20 0 -25 c0 -19 -15 -39 -56 -75 -62 -53 -104 -116 -104 -155
0 -32 51 -78 86 -78 41 0 83 28 105 71 16 33 21 59 20 134 l0 92 48 65 c26 36
59 92 74 125 21 46 33 62 53 67 15 4 29 4 33 1 3 -4 4 -51 2 -105 -3 -109 10
-148 56 -169 36 -16 51 -14 79 14 14 14 27 25 29 25 2 0 15 -11 29 -25 37 -37
77 -33 126 11 l40 36 9 -25 c10 -27 38 -47 65 -47 8 0 28 12 45 26 l31 26 10
-27 c8 -21 16 -26 38 -23 26 3 27 6 33 68 11 102 45 210 68 210 4 0 11 -46 15
-102 4 -63 13 -112 22 -125 15 -24 54 -31 54 -10 1 35 30 167 44 200 26 60 36
45 36 -53 0 -125 28 -190 84 -190 31 0 65 44 71 90 l6 45 -18 -45 c-13 -31
-25 -46 -40 -48 -36 -5 -47 31 -48 167 -2 108 -4 126 -20 137 -10 8 -29 14
-41 14 -25 0 -36 -21 -62 -125 -9 -38 -22 -72 -27 -75 -6 -3 -12 32 -15 90 -5
93 -5 95 -33 105 -34 11 -47 -1 -73 -74 -27 -71 -34 -71 -34 2 0 62 -2 67 -24
73 -14 3 -30 3 -35 -1 -7 -4 -11 -54 -11 -131 0 -131 -11 -175 -46 -188 -39
-15 -49 17 -54 167 -5 140 -5 142 -29 145 -13 2 -27 -2 -32 -9 -6 -11 -12 -10
-27 4 -29 26 -93 22 -121 -7 -32 -34 -52 -110 -50 -194 2 -62 -1 -77 -19 -94
-47 -47 -77 9 -68 127 4 44 7 96 9 115 l2 35 -62 -3 c-57 -2 -62 -1 -65 20 -2
17 -11 24 -30 26 -36 4 -52 -32 -36 -76 9 -24 9 -40 -2 -72 -17 -51 -65 -130
-80 -130 -6 0 -9 46 -8 127 2 123 2 127 -21 137 -19 8 -25 7 -33 -8 -9 -16
-11 -16 -27 -2 -10 9 -31 18 -48 22 -24 5 -37 0 -65 -25 -42 -37 -58 -85 -61
-195 -2 -69 -5 -80 -26 -98 -24 -19 -25 -19 -45 2 -19 19 -21 32 -21 157 0
135 0 136 -25 145 -18 7 -27 5 -36 -7 -10 -13 -13 -13 -24 0 -20 24 -76 30
-105 11 -36 -24 -55 -68 -71 -165 -18 -114 -58 -165 -99 -131 -12 10 -15 45
-15 171 l0 158 58 3 c43 2 57 7 57 18 0 11 -15 16 -55 20 l-55 5 3 44 c1 24
-3 49 -9 57 -12 15 -51 19 -62 7z m359 -248 c24 -37 17 -183 -12 -222 -28 -37
-73 -39 -91 -3 -21 41 -16 164 7 210 17 33 26 40 50 40 20 0 35 -8 46 -25z
m357 -15 c31 -59 6 -201 -41 -236 -24 -18 -29 -17 -57 11 -22 21 -25 33 -25
92 0 115 29 177 79 171 18 -2 32 -14 44 -38z m607 13 c20 -25 22 -37 18 -111
-5 -84 -20 -121 -62 -146 -14 -9 -22 -6 -42 17 -21 25 -24 38 -24 108 0 79 7
107 38 142 22 25 47 21 72 -10z m-589 -407 c-3 -81 -13 -111 -41 -126 -56 -30
-97 22 -67 86 20 42 87 116 100 111 6 -2 9 -31 8 -71z"/>
</g>
</svg>
